{"title":"Star Trek Into Darkness 2013 TSRiP 720P MP3 $MURDER$","uid":8522576,"size":1376806138,"categoryP":"video","categoryS":"hd___movies","magnet":"?xt=urn:btih:b551fe6f2f43d952ee966bc105174fca47e9e61a&amp;dn=Star+Trek+Into+Darkness+2013+TSRiP+720P+MP3+%24MURDER%24&amp;tr=udp%3A%2F%2Ftracker.openbittorrent.com%3A80&amp;tr=udp%3A%2F%2Fopen.demonii.com%3A1337&amp;tr=udp%3A%2F%2Ftracker.coppersurfer.tk%3A6969&amp;tr=udp%3A%2F%2Fexodus.desync.com%3A6969","seeders":10,"leechers":2,"uploader":"R0thschild","files":3,"time":1369948793,"description":"              ***********************************************\n\n                PublicHash - Largest Bittorrent Community\n      \n                         &lt;a href=&quot; http://publichash.com/&quot; rel=&quot;nofollow&quot; target=&quot;_NEW&quot;&gt; http://publichash.com/&lt;/a&gt;\n    \n              ***********************************************\nComplete name: Star Trek Into Darkness 2013 TSRiP 720P MP3 $MURDER$.mkv\nFormat: Matroska\nFormat version: Version 4 / Version 2\nFile size: 1.28 GiB\nDuration: 2h 2mn\nOverall bit rate: 1 499 Kbps\nEncoded date: UTC 2013-05-27 16:51:06\nID: 1\nFormat: AVC\nFormat/Info: Advanced Video Codec\nFormat profile: &lt;a class=&quot;__cf_email__&quot; href=&quot;/cdn-cgi/l/email-protection&quot; data-cfemail=&quot;f3b19280969f9a9d96b3bfc0ddc2&quot;&gt;[email&amp;#160;protected]&lt;/a&gt;&lt;script cf-hash='f9e31' type=&quot;text/javascript&quot;&gt;\n/* &lt;![CDATA[ */!function(){try{var t=&quot;currentScript&quot;in document?document.currentScript:function(){for(var t=document.getElementsByTagName(&quot;script&quot;),e=t.length;e--;)if(t[e].getAttribute(&quot;cf-hash&quot;))return t[e]}();if(t&amp;&amp;t.previousSibling){var e,r,n,i,c=t.previousSibling,a=c.getAttribute(&quot;data-cfemail&quot;);if(a){for(e=&quot;&quot;,r=parseInt(a.substr(0,2),16),n=2;a.length-n;n+=2)i=parseInt(a.substr(n,2),16)^r,e+=String.fromCharCode(i);e=document.createTextNode(e),c.parentNode.replaceChild(e,c)}}}catch(u){}}();/* ]]&gt; */&lt;/script&gt;\nFormat settings, CABAC: No\nFormat settings, ReFrames: 1 frame\nCodec ID: V_MPEG4/ISO/AVC\nDuration: 2h 2mn\nBit rate: 1 290 Kbps\nWidth: 1 202 pixels\nHeight: 544 pixels\nDisplay aspect ratio: 2.35:1\nFrame rate mode: Constant\nFrame rate: 25.000 fps\nColor space: YUV\nChroma subsampling: 4:2:0\nBit depth: 8 bits\nScan type: Progressive\nBits/(Pixel*Frame): 0.079\nStream size: 1.09 GiB (85%)\nWriting library: x264 core\nDefault: Yes\nForced: No\nID: 2\nFormat: MPEG Audio\nFormat version: Version 1\nFormat profile: Layer 3\nMode: Joint stereo\nMode extension: MS Stereo\nCodec ID: A_MPEG/L3\nCodec ID/Hint: MP3\nDuration: 2h 2mn\nBit rate mode: Constant\nBit rate: 192 Kbps\nChannel(s): 2 channels\nSampling rate: 44.1 KHz\nCompression mode: Lossy\nStream size: 168 MiB (13%)\nWriting library: LAME3.98.4\nDefault: Yes\nForced: No\n\nplot\nAfter the crew of the Enterprise find an unstoppable force of terror from within their own organization, Captain Kirk leads a manhunt to a war-zone world to capture a one man weapon of mass destruction\n\ncast\nDirector: J.J. Abrams\nWriter: Roberto Orci, Alex Kurtzman\nActors: Chris Pine, Zachary Quinto, Zoe Saldana, Benedict Cumberbatch\n","torrent":{"xt":"urn:btih:b551fe6f2f43d952ee966bc105174fca47e9e61a","amp;dn":"Star+Trek+Into+Darkness+2013+TSRiP+720P+MP3+%24MURDER%24","amp;tr":["udp%3A%2F%2Ftracker.openbittorrent.com%3A80","udp%3A%2F%2Fopen.demonii.com%3A1337","udp%3A%2F%2Ftracker.coppersurfer.tk%3A6969","udp%3A%2F%2Fexodus.desync.com%3A6969"],"infoHash":"b551fe6f2f43d952ee966bc105174fca47e9e61a","infoHashBuffer":{"type":"Buffer","data":[181,81,254,111,47,67,217,82,238,150,107,193,5,23,79,202,71,233,230,26]},"announce":[],"urlList":[]}}